<svg xmlns="http://www.w3.org/2000/svg" height="337.7" width="337.7" viewBox="0 0 337.651 337.7"><path fill="#39484d" d="M309.303 226.984c-7.436 17.945-7.277 47.512-21.016 61.24-13.736 13.732-43.3 13.56-61.253 20.993-17.942 7.429-38.742 28.45-58.166 28.446s-40.214-21.024-58.16-28.46-47.515-7.282-61.244-21.021c-13.735-13.737-13.566-43.3-21-61.253C21.034 208.987.01 188.186.014 168.762s21.02-40.21 28.456-58.156 7.278-47.513 21.017-61.24c13.736-13.733 43.3-13.561 61.252-20.994 17.943-7.428 38.742-28.45 58.167-28.445s40.214 21.023 58.16 28.46 47.515 7.282 61.244 21.02c13.735 13.738 13.565 43.3 21 61.253 7.43 17.942 28.453 38.743 28.45 58.167s-21.02 40.211-28.457 58.157z"/><g stroke-opacity=".769" transform="rotate(60 211.462 -355.337) scale(.9967)" stroke="#dbb985" fill="none"><circle stroke-width="4" cy="-56.5" cx="646.2" r="148"/><circle stroke-width=".5" cy="-56.5" cx="646.2" r="106.9"/><circle stroke-width="1.024" cy="-56.5" cx="646.2" r="151.6"/><circle stroke-width=".976" cy="-56.5" cx="646.2" r="144.5"/></g><g stroke-opacity=".769" transform="rotate(60 211.462 -355.337) scale(.9967)" stroke="#dbb985" fill="none"><circle stroke-width="1.024" cy="-56.5" cx="646.2" r="151.6"/><circle stroke-width=".976" cy="-56.5" cx="646.2" r="144.5"/></g><path opacity=".8" d="M180.543 33.176l-7.14.04-4.927 11.692-5.03-11.642-7.154.041.122 21.798 5.329-.03-.088-15.946 5.087 11.72 3.562-.019 4.957-11.78.09 15.947 5.314-.03-.12-21.798zm15.868 2.804l-12.798 19.406 5.503 1.279 2.249-3.554 8.561 1.987.44 4.18 5.503 1.276-2.933-23.054-6.53-1.517zm-55.576.586c-1.079.013-2.315.188-3.71.526l-8.344 2.018 5.128 21.19 5.464-1.324-1.94-8.016 1.545-.376c.89-.215 1.647-.191 2.27.068.633.258 1.337.852 2.114 1.786l3.858 4.64 5.817-1.41-4.422-5.298c-.9-1.073-1.722-1.836-2.463-2.287-.733-.464-1.493-.69-2.281-.68 1.259-.755 2.115-1.664 2.57-2.725.463-1.063.525-2.294.186-3.694-.49-2.025-1.5-3.35-3.033-3.97-.761-.31-1.682-.458-2.76-.445zm-1.824 4.426c.434.005.8.083 1.096.231.602.295 1.02.924 1.254 1.888.236.974.155 1.736-.243 2.283-.39.545-1.156.956-2.302 1.232l-2.299.557-1.314-5.435 2.3-.557c.572-.138 1.074-.205 1.509-.2zm59.513.726l.94 9.121-5.817-1.351 4.877-7.771zm19.137.237l-9.095 19.815 5.108 2.346 3.582-7.802 4.298 11.422 6.394 2.935-5.733-15.26 13.845-4.999-5.932-2.723-10.684 3.848 3.319-7.23-5.108-2.346zm-98.385.46l-5.075 2.416 5.616 11.8c.774 1.626 1.06 2.918.859 3.877-.197.945-.901 1.706-2.114 2.283-1.204.573-2.24.64-3.107.2-.862-.451-1.678-1.49-2.453-3.116l-5.616-11.801-5.075 2.416 5.616 11.801c1.326 2.786 3.012 4.528 5.057 5.225 2.047.697 4.497.366 7.353-.993 2.866-1.364 4.673-3.06 5.421-5.087.749-2.028.46-4.435-.866-7.22l-5.617-11.801zm123.79 12.1l-13.405 17.183 4.2 3.278 9.808-12.569-3.27 12.36 2.809 2.19L254.4 70.78l-9.808 12.568 4.191 3.27 13.406-17.183-5.627-4.391-11.113 6.125 3.262-12.25-5.642-4.4zm-150.202 3.73c-1.63.09-3.652 1.053-6.06 2.886l-6.714 5.112 13.206 17.342 7.423-5.651c2.308-1.757 3.714-3.477 4.22-5.159.505-1.681.12-3.359-1.152-5.032-.832-1.093-1.796-1.812-2.895-2.163-1.098-.35-2.234-.3-3.407.152.533-.859.774-1.731.72-2.62-.058-.898-.408-1.769-1.05-2.613-1.22-1.603-2.651-2.355-4.29-2.258zm-1.544 5.01c.6.032 1.126.345 1.58.942.46.604.625 1.2.497 1.787s-.545 1.149-1.25 1.685l-2.474 1.883-2.793-3.672 2.473-1.883c.705-.536 1.36-.784 1.967-.743zm5.762 6.364c.732.03 1.384.42 1.956 1.172.584.766.791 1.513.623 2.24-.16.722-.688 1.425-1.587 2.108l-2.626 2-3.457-4.542 2.624-2c.906-.69 1.728-1.016 2.467-.979zm-24.39 3.474l-3.673 4.254 9.89 8.54c1.364 1.177 2.147 2.244 2.348 3.202.2.945-.138 1.925-1.016 2.941-.872 1.01-1.793 1.488-2.762 1.435-.971-.067-2.14-.689-3.503-1.865l-9.891-8.538-3.674 4.254 9.891 8.54c2.336 2.016 4.58 2.93 6.734 2.745 2.153-.186 4.264-1.476 6.331-3.87 2.073-2.403 3.045-4.682 2.915-6.839-.131-2.157-1.364-4.244-3.7-6.26l-9.89-8.538zm196.948 4.148l-10.246 8.11c-2.419 1.915-3.738 3.947-3.962 6.097-.222 2.15.648 4.465 2.61 6.946 1.97 2.488 4.027 3.871 6.17 4.149 2.143.277 4.425-.542 6.844-2.457l10.246-8.11-3.489-4.408-10.246 8.11c-1.412 1.118-2.608 1.686-3.588 1.704-.965.019-1.865-.499-2.698-1.552-.827-1.046-1.124-2.04-.89-2.982.249-.942 1.078-1.97 2.49-3.088l10.246-8.11-3.488-4.41zM54.951 96.707a32.721 32.721 0 0 0-2.616 3.037 25.528 25.528 0 0 0-2.046 3.09c-1.283 2.293-1.755 4.336-1.42 6.13.336 1.792 1.45 3.219 3.344 4.278 1.512.846 2.959 1.08 4.34.705 1.386-.385 2.817-1.417 4.289-3.092l1.48-1.663c.902-1.012 1.621-1.62 2.158-1.821.541-.21 1.108-.15 1.703.182.663.371 1.013.94 1.052 1.71.038.768-.24 1.688-.84 2.759-.588 1.053-1.363 2.059-2.322 3.017-.963.944-2.107 1.844-3.431 2.698l4.14 2.314a25.743 25.743 0 0 0 3.058-3.074 22.416 22.416 0 0 0 2.375-3.44c1.43-2.557 1.98-4.742 1.654-6.552-.33-1.824-1.543-3.322-3.642-4.495-1.596-.893-3.078-1.135-4.444-.728-1.365.408-2.85 1.55-4.458 3.429l-1.59 1.855c-.76.88-1.387 1.433-1.882 1.658-.497.213-1 .176-1.51-.109-.68-.38-1.025-.94-1.034-1.682-.01-.742.314-1.7.97-2.872.493-.883 1.137-1.755 1.93-2.616a20.062 20.062 0 0 1 2.769-2.467l-4.028-2.252zm231.633 3.815l-19.515 9.716 2.506 5.032 7.383-3.676.709 1.425c.408.819.556 1.56.442 2.226-.11.675-.534 1.495-1.271 2.46l-3.666 4.792 2.67 5.36 4.18-5.49c.847-1.117 1.407-2.088 1.683-2.91.288-.818.341-1.611.155-2.378 1.017 1.06 2.093 1.694 3.228 1.9 1.14.215 2.354.002 3.644-.64 1.865-.929 2.93-2.209 3.194-3.842.268-1.622-.239-3.72-1.518-6.289l-3.825-7.685zm-1.142 6.849l1.056 2.116c.524 1.054.708 1.903.55 2.548-.153.653-.674 1.2-1.562 1.643-.898.446-1.658.537-2.28.27-.617-.258-1.19-.916-1.715-1.97l-1.054-2.116 5.005-2.492z" fill="#e6e6e6"/><path opacity=".8" d="M62.634 226.436c-.924.043-1.863.368-2.819.971-1.22.77-1.968 1.735-2.242 2.897-.27 1.168-.086 2.624.554 4.368l.63 1.748c.382 1.063.54 1.83.474 2.304-.061.48-.331.872-.812 1.176-.535.337-1.092.367-1.67.09-.578-.279-1.14-.85-1.685-1.714-.537-.85-.966-1.82-1.285-2.902-.308-1.082-.512-2.276-.61-3.587l-3.342 2.11c.255 1.21.6 2.366 1.033 3.464a18.662 18.662 0 0 0 1.573 3.107c1.303 2.064 2.681 3.337 4.136 3.819 1.466.484 3.048.193 4.743-.876 1.29-.814 2.056-1.803 2.301-2.965.245-1.162.001-2.705-.734-4.63l-.726-1.902c-.342-.906-.497-1.584-.465-2.036.043-.449.27-.803.681-1.062.549-.347 1.096-.376 1.643-.088.546.288 1.117.907 1.715 1.853.45.713.832 1.53 1.146 2.455.315.924.55 1.925.705 3.008l3.251-2.052a27.238 27.238 0 0 0-1.18-3.125 21.274 21.274 0 0 0-1.448-2.727c-1.17-1.852-2.476-3.01-3.923-3.478a4.601 4.601 0 0 0-1.645-.226zm209.008 2.044l-2.677 3.842 5.68 3.956-3.948 5.672-5.682-3.956-2.677 3.845 14.91 10.375 2.677-3.842-6.32-4.401 3.95-5.67 6.32 4.399 2.677-3.844-14.91-10.376zM72.6 237.947l-13.675 11.96 2.922 3.343 10.007-8.744-4.617 9.597 1.954 2.235 10.127-3.296-10.007 8.744 2.914 3.335 13.675-11.96-3.917-4.48-10.057 3.266 4.594-9.513-3.925-4.487zm188.276 6.37a27.238 27.238 0 0 0-2.72 1.936 21.16 21.16 0 0 0-2.268 2.095c-1.493 1.602-2.282 3.162-2.367 4.68-.085 1.518.536 2.893 1.859 4.127 1.056.984 2.18 1.461 3.373 1.431 1.199-.036 2.559-.585 4.083-1.648l1.53-1.054c.93-.64 1.631-.99 2.106-1.047.48-.063.928.1 1.343.486.463.432.634.963.512 1.593-.12.63-.53 1.318-1.225 2.065-.686.736-1.514 1.397-2.48 1.982-.967.573-2.07 1.074-3.311 1.503l2.892 2.696a21.4 21.4 0 0 0 3.084-1.883c.951-.7 1.819-1.47 2.604-2.312 1.665-1.786 2.545-3.444 2.64-4.974.095-1.54-.59-2.995-2.056-4.36-1.115-1.04-2.265-1.531-3.451-1.473-1.186.06-2.617.69-4.291 1.89l-1.655 1.185c-.789.562-1.406.885-1.85.97-.445.073-.845-.058-1.201-.39-.475-.442-.642-.963-.503-1.564.14-.602.59-1.313 1.353-2.132a11.563 11.563 0 0 1 2.083-1.735 16.66 16.66 0 0 1 2.729-1.448l-2.81-2.62zm-11.163 10.624l-3.519 3.092 11.99 13.645 3.52-3.092-11.99-13.645zM87.75 256.684a7.922 7.922 0 0 0-.876.042c-2.339.25-4.439 1.514-6.3 3.797-1.855 2.275-2.669 4.584-2.442 6.924.232 2.346 1.477 4.437 3.733 6.278 2.263 1.846 4.563 2.643 6.901 2.394s4.437-1.51 6.292-3.786c1.86-2.282 2.677-4.594 2.45-6.934-.226-2.34-1.47-4.433-3.733-6.279-1.975-1.61-3.983-2.422-6.025-2.436zm156.482 3.157l-10.256 7.396 10.624 14.73 3.8-2.738-4.506-6.247 6.068-4.379-2.072-2.871-6.067 4.378-1.98-2.743 6.454-4.654-2.071-2.872zm-155.286.911c.925-.01 1.802.322 2.632.999 1.112.907 1.642 2.018 1.585 3.333-.057 1.314-.69 2.714-1.9 4.197-1.205 1.477-2.446 2.374-3.722 2.694s-2.468.027-3.582-.88c-1.106-.902-1.631-2.01-1.575-3.325.057-1.314.688-2.71 1.892-4.187 1.21-1.483 2.452-2.386 3.728-2.706.319-.08.634-.121.942-.125zm12.608 4.908l-9.283 15.618 4.027 2.394 3.656-6.15 2.556 9.843 5.04 2.996-3.407-13.146 11.92-2.925-4.673-2.777-9.192 2.248 3.387-5.7-4.026-2.394zm14.671 8.464l-7.148 16.695 11.87 5.08 1.394-3.254-7.563-3.238 1.64-3.825 6.877 2.945 1.393-3.255-6.877-2.945 1.33-3.109 7.316 3.13 1.393-3.255-11.622-4.973zm106.149.646c-.34.01-.685.04-1.034.092-1.39.195-3.34.865-5.85 2.007l-4.496 2.046 7.522 16.536 4.497-2.047c2.48-1.128 4.26-2.153 5.34-3.072 1.075-.926 1.86-2.018 2.356-3.278a7.792 7.792 0 0 0 .555-3.366c-.07-1.153-.39-2.353-.958-3.6-.56-1.234-1.251-2.252-2.07-3.055a7.801 7.801 0 0 0-2.901-1.795 7.962 7.962 0 0 0-2.961-.467zm-1.101 3.964a4.61 4.61 0 0 1 1.56.234c1.305.44 2.333 1.479 3.078 3.118.75 1.647.86 3.112.33 4.396-.523 1.28-1.657 2.316-3.4 3.109l-1.527.696-4.59-10.086 1.53-.695c1.093-.498 2.099-.754 3.019-.77zm-12.12.755l-12.11 3.613 5.194 17.403 12.369-3.691-1.011-3.393-7.882 2.351-1.189-3.986 7.17-2.14-1.013-3.392-7.17 2.139-.967-3.241 7.625-2.274-1.013-3.393zm-79.537.355l-4.814 17.512 4.763 1.307c2.629.722 4.65 1.076 6.068 1.06 1.42-.021 2.723-.356 3.911-1.006a7.792 7.792 0 0 0 2.582-2.23c.684-.931 1.21-2.058 1.572-3.38.36-1.306.48-2.53.364-3.672s-.474-2.222-1.078-3.237c-.681-1.164-1.624-2.112-2.827-2.846-1.193-.74-3.118-1.475-5.778-2.206l-4.763-1.307zm64.636 3.755l-4.598.902 3.499 17.82 4.595-.9-3.496-17.822zm-61.058.9l1.62.445c1.854.51 3.14 1.352 3.86 2.525.72 1.174.843 2.628.366 4.365-.48 1.744-1.333 2.939-2.561 3.586-1.221.648-2.756.72-4.602.212l-1.618-.446 2.935-10.685zm21.25 1.135l-1.009 18.14 4.93.274c2.722.152 4.774.072 6.156-.241 1.383-.321 2.588-.925 3.612-1.81a7.809 7.809 0 0 0 2.052-2.725c.473-1.055.747-2.266.823-3.634.075-1.353-.063-2.574-.416-3.666s-.934-2.07-1.739-2.935c-.911-.993-2.03-1.723-3.362-2.186-1.322-.472-3.36-.785-6.114-.938l-4.933-.275zm26.841.093c-.52-.004-1.078.023-1.674.076l-7.125.64 1.628 18.09 4.664-.42-.615-6.846 1.322-.119c.76-.068 1.378.043 1.86.333.49.29 1 .868 1.525 1.732l2.61 4.298 4.967-.448-2.994-4.91c-.61-.995-1.193-1.725-1.748-2.187-.547-.472-1.147-.753-1.799-.841 1.13-.468 1.949-1.112 2.453-1.932.513-.82.715-1.828.607-3.023-.155-1.729-.826-2.942-2.013-3.642-.884-.525-2.108-.793-3.67-.804zm-1.182 3.473c.634.01 1.121.135 1.46.373.46.317.726.888.8 1.712.075.832-.085 1.449-.48 1.85-.388.402-1.07.647-2.047.735l-1.964.175-.417-4.64 1.962-.178a6.53 6.53 0 0 1 .686-.027zm-21.18.23l1.676.093c1.92.107 3.354.657 4.306 1.652.952.996 1.38 2.391 1.279 4.19-.1 1.806-.683 3.155-1.748 4.047-1.057.892-2.543 1.284-4.454 1.178l-1.677-.093.617-11.064z" fill="#b59f78"/><path opacity=".9" d="M45.49 158.062a.659.659 0 0 0-.5.158.66.66 0 0 0-.235.469.664.664 0 0 0 .627.728.726.726 0 0 0 .523-.156.63.63 0 0 0 .245-.457.64.64 0 0 0-.167-.499.718.718 0 0 0-.493-.243zm-7.493 4.365l-.15 5.665.729.02.064-2.393 6.995.185.023-.891-6.995-.185.062-2.381-.728-.02zm5.37 7.595a1.845 1.845 0 0 0-.812.199c-.242.12-.448.276-.621.471-.174.195-.31.387-.407.576-.097.186-.269.566-.516 1.143-.332.78-.732 1.176-1.199 1.189-.394.01-.701-.127-.92-.413-.224-.29-.342-.668-.355-1.135a4.06 4.06 0 0 1 .199-1.316l-.771-.181a5.172 5.172 0 0 0-.193 1.54c.02.704.214 1.28.584 1.73.37.45.876.666 1.515.648a1.682 1.682 0 0 0 1.205-.537c.16-.165.285-.33.376-.493.086-.166.25-.53.49-1.092.233-.547.468-.925.703-1.133.232-.207.517-.316.86-.325.464-.013.833.131 1.108.434.271.3.414.706.428 1.217.012.438-.106.953-.356 1.548l.777.165c.248-.507.365-1.094.346-1.758-.02-.686-.243-1.274-.67-1.766-.43-.496-1.02-.734-1.77-.713zm2.481 6.816l-.778.064.255 3.127-2.974.243-.244-2.972-.778.064.243 2.973-2.385.196-.253-3.096-.78.065.324 3.989 7.702-.631-.331-4.022zm249.416-20.371l-.896.076.9 1.473-5.979.507-.138-1.632-.78.066.342 4.049.78-.066-.128-1.522 6.961-.59-.066-.77-.997-1.592zm-1.056 6.506c-.66.019-1.195.25-1.602.697-.403.45-.595 1.002-.576 1.654.018.602.228 1.12.63 1.554-.864.025-1.595-.137-2.193-.484-.598-.345-.905-.818-.923-1.424-.012-.423.068-.89.24-1.4l-.798-.118c-.17.443-.245.965-.228 1.563.026.89.445 1.587 1.26 2.093.818.51 1.795.75 2.93.716 1.133-.033 2.063-.287 2.787-.76.724-.475 1.074-1.114 1.051-1.92-.019-.66-.277-1.196-.774-1.601-.494-.402-1.095-.591-1.803-.57zm.103.95c.49-.014.89.095 1.2.33.313.24.476.566.488.978.013.456-.24.833-.757 1.13-.514.295-1.118.452-1.81.472l-.057-.068a2.205 2.205 0 0 1-.557-1.44c-.011-.405.122-.739.4-.999.28-.256.645-.39 1.094-.403zm.037 6.072c-.66-.018-1.206.184-1.637.607-.428.427-.65.967-.668 1.62a2.307 2.307 0 0 0 .543 1.586c-.865-.023-1.587-.224-2.165-.605-.577-.377-.857-.87-.84-1.475.01-.423.117-.884.317-1.382l-.79-.164c-.195.433-.3.95-.316 1.548-.024.89.356 1.61 1.141 2.16.788.555 1.75.848 2.885.879 1.135.03 2.076-.171 2.825-.604.75-.432 1.136-1.052 1.158-1.859.018-.66-.211-1.206-.685-1.638-.47-.43-1.06-.653-1.767-.672zm.05.954c.49.013.882.146 1.179.399.3.256.445.59.434 1.002-.012.456-.285.818-.817 1.085-.53.267-1.143.39-1.836.372l-.053-.072a2.207 2.207 0 0 1-.475-1.47c.011-.405.162-.73.454-.974.295-.24.666-.355 1.115-.342zm-5.668 5.768l-.353 4.234.78.066.272-3.242c.998 1.069 1.692 1.79 2.083 2.163.39.374.803.686 1.24.939a3.15 3.15 0 0 0 1.347.441c.648.055 1.181-.114 1.602-.504.424-.386.665-.922.722-1.61.05-.6-.017-1.182-.204-1.752l-.781.06c.171.627.242 1.12.212 1.48-.04.469-.192.823-.461 1.06-.27.241-.62.344-1.05.308a3.256 3.256 0 0 1-1.31-.413 6.145 6.145 0 0 1-1.218-.886c-.381-.354-1.124-1.118-2.231-2.291l-.65-.055z" fill="#e6e6e6"/><path opacity=".384" d="M43.098 150.886l-.56-6.896-6.803 1.26 4.48-5.273-5.702-3.92 6.897-.56-1.26-6.804 5.273 4.48 3.92-5.702.56 6.896 6.803-1.26-4.48 5.273 5.702 3.92-6.896.56 1.26 6.804-5.272-4.48zm0 61.098l-.56-6.898-6.803 1.26 4.48-5.272-5.702-3.92 6.896-.56-1.26-6.804 5.273 4.48 3.92-5.702.56 6.896 6.803-1.26-4.48 5.273 5.702 3.92-6.896.56 1.26 6.804-5.272-4.48zm245.189-61.098l-.56-6.896-6.804 1.26 4.48-5.273-5.702-3.92 6.897-.56-1.26-6.804 5.273 4.48 3.92-5.702.56 6.896 6.804-1.26-4.48 5.273 5.702 3.92-6.897.56 1.26 6.804-5.272-4.48zm0 61.098l-.56-6.898-6.804 1.26 4.48-5.272-5.702-3.92 6.896-.56-1.26-6.804 5.273 4.48 3.92-5.702.56 6.896 6.804-1.26-4.48 5.273 5.702 3.92-6.897.56 1.26 6.804-5.272-4.48z" fill="#b59f78"/><g fill="#b59f78"><path opacity=".8" d="M168.473 62.3c-.296 0-.174 9.685.078 22.425.165-12.748.219-22.426-.078-22.426zm.078 22.425c-.109 8.426-.258 17.9-.416 27.688a2.43 2.43 0 0 1 .498-.059c.178 0 .353.023.524.061-.226-9.79-.439-19.266-.606-27.688zm16.595-21.17c-.293-.046-1.69 9.541-3.433 22.167 2.156-12.559 3.726-22.127 3.433-22.167zm-3.433 22.167c-1.7 9.9-3.708 21.379-5.693 32.731.182.07.37.122.56.152.217.034.437.032.661.014 1.542-11.412 3.098-22.954 4.471-32.891zm-29.891-22.057c-.293.047 1.342 9.608 3.588 22.166-1.832-12.628-3.295-22.216-3.588-22.166zm3.588 22.166c1.44 9.923 3.071 21.43 4.69 32.812.208.014.416.01.62-.022.204-.033.402-.095.596-.174-2.058-11.312-4.142-22.744-5.907-32.622zm46.007-18.439c-.282-.09-3.16 9.154-6.856 21.35 4.093-12.06 7.138-21.26 6.856-21.35zm-6.856 21.35a8999.8 8999.8 0 0 1-8.964 26.253c.153.018.306.043.455.091a2.5 2.5 0 0 1 .512.234 8077.655 8077.655 0 0 1 7.997-26.572zm-58.975-21.12c-.281.092 2.827 9.266 7.004 21.309-3.78-12.17-6.723-21.4-7.004-21.31zm7.004 21.309a9127.625 9127.625 0 0 1 8.155 26.442c.156-.093.322-.172.498-.23.154-.05.31-.076.468-.095a8557.61 8557.61 0 0 1-9.12-26.114zm74.294-15.19c-.265-.134-4.564 8.568-10.136 20.054 5.942-11.303 10.395-19.924 10.136-20.054zm-10.136 20.054a10457.77 10457.77 0 0 1-15.539 29.383c.145.115.298.218.461.301.206.105.427.17.657.222 4.991-10.375 10.036-20.87 14.412-29.9zM120.154 74.07c-.263.136 4.242 8.711 10.256 19.954-5.638-11.432-9.987-20.083-10.256-19.954zm10.256 19.954c4.435 8.988 9.542 19.426 14.602 29.752.222-.053.435-.12.635-.222.168-.086.326-.19.475-.31-5.46-10.136-10.974-20.372-15.708-29.223zm100.767-11.592c-.24-.173-5.844 7.743-13.137 18.21 7.632-10.226 13.376-18.04 13.137-18.21zm-13.137 18.21a9710.772 9710.772 0 0 1-16.645 22.207c.135.063.267.13.39.218.16.116.3.252.426.4 5.586-8.073 11.004-15.887 15.828-22.824zm-112.128-17.78c-.24.174 5.55 7.939 13.246 18.1-7.357-10.406-13.007-18.28-13.246-18.1zm13.246 18.1a9339.572 9339.572 0 0 1 15.927 22.624c.129-.154.27-.298.436-.418.116-.085.241-.147.368-.209a9684.761 9684.761 0 0 1-16.735-22.007zm124.687-7.72c-.21-.208-6.966 6.72-15.788 15.898 9.12-8.887 15.997-15.688 15.788-15.897zm-15.788 15.898c-7.221 7.036-15.628 15.18-23.94 23.223.1.152.212.294.34.42.166.166.36.3.567.421 7.98-8.353 16.056-16.804 23.033-24.06zM93.204 93.761c-.21.21 6.72 6.965 15.897 15.788-8.887-9.12-15.688-15.997-15.897-15.788zm15.897 15.788a9622.5 9622.5 0 0 1 23.074 23.79c.213-.124.415-.262.586-.433.12-.121.224-.256.32-.4-8.329-7.957-16.744-15.996-23.98-22.953zm145.618-3.634c-.175-.24-7.947 5.557-18.11 13.256 10.415-7.362 18.29-13.017 18.11-13.256zm-18.11 13.256a7562.02 7562.02 0 0 1-22.745 16.007c.108.101.213.205.302.327.117.16.21.333.284.514a9964.909 9964.909 0 0 1 22.157-16.854zm-154.29-12.668c-.173.24 7.734 5.835 18.19 13.116-10.216-7.623-18.02-13.365-18.19-13.116zm18.19 13.116c6.755 5.044 14.333 10.735 22.167 16.615.077-.206.173-.405.304-.586.072-.1.162-.183.249-.27-8.04-5.563-15.818-10.944-22.715-15.758zm162.96.51c-.135-.263-8.71 4.242-19.953 10.256 11.432-5.638 20.083-9.987 19.954-10.256zm-19.953 10.256c-9.052 4.466-19.575 9.617-29.97 14.702.049.177.113.35.196.512.105.206.246.392.403.57a11513.606 11513.606 0 0 1 29.373-15.788zm-169.838-9.599c-.133.265 8.55 4.553 20.014 10.117-11.283-5.933-19.884-10.376-20.014-10.117zm20.014 10.117a10830.1 10830.1 0 0 1 29.283 15.478c.18-.195.342-.4.46-.632.07-.137.117-.284.163-.432-10.376-4.994-20.87-10.037-29.901-14.413zm176.217 4.656c-.093-.282-9.28 2.83-21.33 7.012 12.18-3.785 21.43-6.73 21.33-7.012zm-21.33 7.012a8783.01 8783.01 0 0 1-26.622 8.21c.075.135.146.272.195.421.06.185.094.371.109.561 9.295-3.26 18.3-6.41 26.323-9.193zm-181.3-6.317c-.09.282 9.146 3.156 21.33 6.848-12.05-4.09-21.24-7.13-21.33-6.848zm21.33 6.848c8 2.715 16.994 5.791 26.283 8.977.01-.238.03-.474.105-.703.033-.103.087-.196.132-.292a8675.05 8675.05 0 0 1-26.522-7.982zm184.987 8.663c-1.627.057-10.565 1.598-21.857 3.617 12.608-1.83 22.186-3.291 22.136-3.584 0-.03-.1-.04-.28-.033zm-21.857 3.617c-10.007 1.45-21.619 3.1-33.09 4.73-.01.193-.002.384.028.572.036.222.11.436.199.647 11.392-2.071 22.924-4.173 32.86-5.95zM63.76 152.485c-.18-.01-.278.01-.282.035-.045.293 9.538 1.689 22.156 3.432-11.302-1.94-20.252-3.42-21.877-3.467zm21.878 3.467c9.877 1.696 21.32 3.698 32.652 5.678.12-.254.218-.514.26-.785.022-.137.02-.277.02-.416-11.423-1.543-22.975-3.102-32.932-4.477zm139.239 12.16c.034.16.057.323.058.49 0 .184-.022.363-.061.54 9.858-.228 19.415-.442 27.907-.61-8.49-.11-18.04-.26-27.897-.42zm27.897.42c12.758.165 22.456.219 22.456-.078-.001-.296-9.701-.175-22.456.078zm-140.435-.029c-9.79.226-19.266.438-27.688.606 8.456.109 17.97.257 27.788.416a2.468 2.468 0 0 1-.13-.74c0-.096.021-.188.032-.282zm-27.688.606c-12.748-.166-22.426-.219-22.426.077.001.297 9.686.175 22.426-.077zm134.255 6.848a2.766 2.766 0 0 0-.167.588 2.79 2.79 0 0 0-.018.64c11.492 1.552 23.124 3.12 33.14 4.505-9.967-1.711-21.538-3.736-32.96-5.733zm32.961 5.733c12.559 2.157 22.117 3.727 22.167 3.433.045-.292-9.54-1.69-22.167-3.433zm-133.358-5.357c-11.363 2.067-22.864 4.16-32.772 5.931 9.932-1.441 21.46-3.077 32.862-4.697.04-.291.054-.58.01-.86-.021-.128-.063-.251-.102-.375zm-32.772 5.931c-12.598 1.828-22.156 3.287-22.116 3.58.047.293 9.58-1.34 22.116-3.58zm136.648 3.227c-.016.178-.05.353-.105.526-.052.162-.128.31-.21.455 9.47 2.837 18.648 5.593 26.79 8.062a8905.316 8905.316 0 0 1-26.472-9.042zm26.472 9.042c12.06 4.094 21.26 7.139 21.35 6.857.09-.283-9.154-3.16-21.35-6.857zm-133.757-8.6c-9.253 3.244-18.21 6.38-26.183 9.148a8553.085 8553.085 0 0 1 26.612-8.207 2.469 2.469 0 0 1-.368-.684c-.028-.084-.035-.171-.053-.256zm-26.183 9.148c-12.17 3.781-21.4 6.722-21.31 7.003.093.282 9.268-2.826 21.31-7.003zm125.385-3.983c-.145.17-.273.348-.372.543-.09.176-.156.363-.207.557 10.446 5.026 21.03 10.116 30.14 14.531-8.949-4.707-19.325-10.206-29.561-15.628zm29.562 15.628c11.292 5.94 19.914 10.386 20.043 10.126.134-.264-8.562-4.558-20.043-10.126zm-120.501-15.26a14413.06 14413.06 0 0 1-29.353 15.778c9.006-4.443 19.465-9.561 29.821-14.631a2.902 2.902 0 0 0-.257-.84c-.057-.11-.132-.21-.204-.313zM94.01 207.244c-11.432 5.639-20.084 9.987-19.954 10.256.136.264 8.711-4.24 19.954-10.256zm120.6-6.03a2.45 2.45 0 0 1-.28.511 2.33 2.33 0 0 1-.307.335 9909.737 9909.737 0 0 1 22.994 15.947c-6.825-5.095-14.492-10.854-22.406-16.794zm22.406 16.794c10.217 7.623 18.02 13.365 18.19 13.126.174-.24-7.733-5.838-18.19-13.126zm-113.922-16.356a7028.79 7028.79 0 0 1-22.087 16.794c6.923-4.894 14.721-10.375 22.774-16.037a2.479 2.479 0 0 1-.568-.543c-.05-.07-.083-.147-.125-.22zm-22.087 16.794c-10.426 7.369-18.31 13.027-18.13 13.266.175.24 7.956-5.561 18.13-13.266zm104.155-14.392a2.822 2.822 0 0 0-.569.424c-.127.128-.24.272-.34.425 8.399 8.024 16.914 16.156 24.22 23.183-7.062-7.247-15.24-15.698-23.313-24.03zm23.313 24.03c8.886 9.12 15.688 15.997 15.897 15.788.209-.21-6.72-6.966-15.897-15.788zm-95.863-23.721c-7.993 8.366-16.087 16.844-23.073 24.12 7.203-7.019 15.588-15.14 23.87-23.163-.14-.266-.3-.513-.506-.719-.087-.087-.19-.158-.29-.233zm-23.073 24.12c-9.128 8.893-16.017 15.708-15.808 15.917.21.209 6.974-6.726 15.808-15.917zm82.965-14.89a2.856 2.856 0 0 0-.72.237c-.148.075-.283.17-.415.272a15185.664 15185.664 0 0 1 15.877 29.533c-4.474-9.07-9.64-19.625-14.74-30.041zm14.741 30.04c5.632 11.422 9.977 20.063 10.236 19.924.264-.136-4.236-8.7-10.236-19.924zm-61.855-29.871c-5.02 10.435-10.107 21-14.512 30.1 4.687-8.912 10.156-19.236 15.568-29.443a2.905 2.905 0 0 0-.695-.52c-.114-.057-.238-.096-.36-.137zm-14.512 30.1c-5.936 11.283-10.386 19.894-10.117 20.034.265.133 4.556-8.558 10.117-20.034zm71.453-30.09a2.436 2.436 0 0 1-.455.443c-.11.081-.232.14-.353.199a7319.792 7319.792 0 0 1 16.934 22.266c-4.92-6.959-10.435-14.81-16.126-22.904zm16.127 22.904c7.357 10.405 13.007 18.28 13.246 18.1.24-.175-5.552-7.94-13.246-18.1zm-82.995-22.536a7860.875 7860.875 0 0 1-15.858 22.865 9509.217 9509.217 0 0 1 16.755-22.346 2.476 2.476 0 0 1-.703-.339c-.072-.052-.128-.118-.193-.177zm-15.858 22.865c-7.63 10.216-13.376 18.03-13.136 18.21.24.173 5.841-7.741 13.136-18.21zm57.66-18.28c-.192-.01-.38 0-.567.03-.15.023-.294.069-.438.118 2.074 11.402 4.182 22.964 5.962 32.93-1.45-9.986-3.094-21.588-4.72-33.04-.079-.01-.16-.029-.238-.033zm4.958 33.07c1.832 12.629 3.297 22.217 3.59 22.167.293-.047-1.345-9.608-3.59-22.166zm-21.798-33.04c-1.553 11.492-3.124 23.144-4.509 33.16 1.707-9.942 3.726-21.479 5.717-32.87a2.883 2.883 0 0 0-.796-.267c-.136-.021-.275-.021-.413-.021zm-4.509 33.16c-2.156 12.559-3.725 22.117-3.432 22.157.293.046 1.689-9.538 3.432-22.157zm30.878-29.99c-.19.128-.39.24-.612.313-.114.038-.231.05-.348.07a8935.82 8935.82 0 0 1 9.217 26.392 8315.172 8315.172 0 0 1-8.257-26.78zm8.257 26.781c3.78 12.17 6.723 21.4 7.004 21.31.282-.093-2.826-9.267-7.004-21.31zm-43.934-26.522a8096.722 8096.722 0 0 1-8.035 26.701c2.735-8.06 5.838-17.123 9.045-26.482-.256 0-.508-.026-.754-.105-.091-.03-.171-.079-.257-.119zm-8.035 26.701c-4.094 12.07-7.14 21.26-6.858 21.36.282.09 3.16-9.159 6.858-21.36zm26.423-23.98a2.449 2.449 0 0 1-.718.122c-.107 0-.208-.022-.312-.036.228 9.864.441 19.425.61 27.917.11-8.519.26-18.11.42-28.007zm-.42 28.007c-.166 12.748-.219 22.426.077 22.426s.175-9.686-.077-22.426z"/><path opacity=".5" d="M168.673 112.533c-3.031 0-4.928 5.79-7.92 6.27-2.992.478-6.601-4.426-9.482-3.485-2.88.94-2.897 7.031-5.595 8.412s-7.645-2.17-10.097-.385c-2.449 1.786-.581 7.582-2.72 9.728-2.14 2.147-7.942.3-9.72 2.756s1.79 7.392.418 10.096c-1.371 2.703-7.459 2.74-8.39 5.623-.931 2.884 3.985 6.475 3.516 9.47-.47 2.994-6.25 4.912-6.245 7.943.01 3.031 5.792 4.929 6.271 7.922.48 2.993-4.425 6.603-3.484 9.483.941 2.882 7.032 2.898 8.412 5.596s-2.169 7.648-.383 10.096c1.785 2.45 7.582.583 9.728 2.723 2.147 2.14.301 7.943 2.756 9.721s7.389-1.79 10.087-.418c2.703 1.372 2.74 7.463 5.624 8.395 2.883.932 6.477-3.985 9.47-3.516 2.995.47 4.911 6.25 7.941 6.246 3.031 0 4.928-5.793 7.92-6.273 2.992-.479 6.6 4.428 9.48 3.487 2.881-.942 2.898-7.032 5.596-8.412s7.647 2.17 10.097.384c2.449-1.786.58-7.584 2.719-9.73 2.139-2.146 7.943-.298 9.72-2.753s-1.789-7.39-.417-10.097c1.371-2.703 7.46-2.74 8.392-5.624.931-2.885-3.987-6.478-3.518-9.473.47-2.994 6.248-4.912 6.243-7.943-.01-3.03-5.79-4.926-6.27-7.92-.479-2.993 4.426-6.6 3.485-9.481-.941-2.882-7.032-2.9-8.412-5.598s2.167-7.645.38-10.096c-1.785-2.449-7.58-.585-9.725-2.725-2.147-2.14-.301-7.943-2.756-9.72s-7.39 1.79-10.097.417c-2.703-1.371-2.738-7.462-5.622-8.394s-6.474 3.985-9.469 3.515c-2.994-.47-4.912-6.25-7.942-6.244zm-2.268 5.809a50.583 50.583 0 0 1 47.981 28.675 50.583 50.583 0 0 1-23.761 67.476 50.583 50.583 0 0 1-67.477-23.761 50.583 50.583 0 0 1 23.762-67.477 50.583 50.583 0 0 1 19.485-4.91z"/><circle opacity=".9" transform="rotate(64.399 185.475 -340.797) scale(.9967)" cy="-105.9" cx="640" r="48.65"/></g><g fill="#39484d"><path opacity=".5" d="M198.773 150.906a31.924 34.526 0 0 0-11.562 6.357c-2.358 4.218-3.596 9.044-4.493 14.103.952 5.398 2.24 10.057 4.652 14.213a31.924 34.526 0 0 0 11.392 6.226 14.87 34.885 0 0 1-9.54-20.443 14.87 34.885 0 0 1 9.548-20.452zm-32.393-5.382c-4.06-.201-5.81 6.832-8.026 9.18.8-.088 1.604-.134 2.408-.137 7.539.027 14.651 3.775 19.326 10.176.652-7.569-5.845-18.827-13.705-19.216z"/><path opacity=".8" d="M160.799 154.594a24.708 26.712 0 0 0-9.85 2.245 14.87 34.885 0 0 1 .354.62 14.87 34.885 0 0 1 1.097 2.351 14.87 34.885 0 0 1 .993 2.597 14.87 34.885 0 0 1 .876 2.816 14.87 34.885 0 0 1 .753 3.004 14.87 34.885 0 0 1 .621 3.17 14.87 34.885 0 0 1-.614 3.13 14.87 34.885 0 0 1-.75 3.01 14.87 34.885 0 0 1-.877 2.816 14.87 34.885 0 0 1-.992 2.6 14.87 34.885 0 0 1-1.096 2.352 14.87 34.885 0 0 1-.356.624 24.708 26.712 0 0 0 9.841 2.242 24.708 26.712 0 0 0 19.705-10.665 31.924 34.526 0 0 0 6.925 8.108c-2.412-4.162-3.7-8.817-4.651-14.213.896-5.055 2.134-9.88 4.493-14.103a31.924 34.526 0 0 0-6.751 7.988 24.708 26.712 0 0 0-19.715-10.695z"/><path d="M149.237 166.156a1.52 1.57 0 0 1-1.52 1.57 1.52 1.57 0 0 1-1.52-1.57 1.52 1.57 0 0 1 1.52-1.571 1.52 1.57 0 0 1 1.52 1.57zm1.667-9.344a24.708 26.712 0 0 0-12.04 12.16 24.808 8.911 0 0 1 3.99 2.388 24.808 8.911 0 0 1-3.998 2.394 24.708 26.712 0 0 0 12.06 12.14 14.87 34.885 0 0 0 .357-.625 14.87 34.885 0 0 0 1.096-2.352 14.87 34.885 0 0 0 .991-2.598 14.87 34.885 0 0 0 .877-2.816 14.87 34.885 0 0 0 .751-3.01 14.87 34.885 0 0 0 .614-3.13 14.87 34.885 0 0 0-.621-3.17 14.87 34.885 0 0 0-.753-3.005 14.87 34.885 0 0 0-.876-2.816 14.87 34.885 0 0 0-.993-2.596 14.87 34.885 0 0 0-1.097-2.35 14.87 34.885 0 0 0-.355-.62z"/><path opacity=".5" d="M176.467 181.712a24.702 26.712 0 0 1-12.576 6.006c1.878 1.28 4.3 4.915 6.9 4.229 3.785-.999 3.933-6.09 5.676-10.237z"/></g></svg>